<svg xmlns="http://www.w3.org/2000/svg" xmlns:xlink="http://www.w3.org/1999/xlink" version="1.1" class="marks" width="1310" height="1039" viewBox="0 0 1310 1039"><rect width="1310" height="1039" fill="white"/><g fill="none" stroke-miterlimit="10" transform="translate(205,22)"><g class="mark-group role-frame root" role="graphics-object" aria-roledescription="group mark container"><g transform="translate(0,0)"><path class="background" aria-hidden="true" d="M0,0h1080v980h-1080Z"/><g><g class="mark-group role-axis" role="graphics-symbol" aria-roledescription="axis" aria-label="Y-axis titled 'Image Reference' for a discrete scale with 50 values: ubuntu:18.04, alpine:latest, ubuntu, alpine, ubuntu:latest, ending with php:7.4-fpm-alpine"><g transform="translate(0.5,0.5)"><path class="background" aria-hidden="true" d="M0,0h0v0h0Z" pointer-events="none"/><g><g class="mark-rule role-axis-tick" pointer-events="none"><line transform="translate(0,10)" x2="-5" y2="0" stroke="#888" stroke-width="1" opacity="1"/><line transform="translate(0,30)" x2="-5" y2="0" stroke="#888" stroke-width="1" opacity="1"/><line transform="translate(0,49)" x2="-5" y2="0" stroke="#888" stroke-width="1" opacity="1"/><line transform="translate(0,69)" x2="-5" y2="0" stroke="#888" stroke-width="1" opacity="1"/><line transform="translate(0,89)" x2="-5" y2="0" stroke="#888" stroke-width="1" opacity="1"/><line transform="translate(0,108)" x2="-5" y2="0" stroke="#888" stroke-width="1" opacity="1"/><line transform="translate(0,128)" x2="-5" y2="0" stroke="#888" stroke-width="1" opacity="1"/><line transform="translate(0,147)" x2="-5" y2="0" stroke="#888" stroke-width="1" opacity="1"/><line transform="translate(0,167)" x2="-5" y2="0" stroke="#888" stroke-width="1" opacity="1"/><line transform="translate(0,186)" x2="-5" y2="0" stroke="#888" stroke-width="1" opacity="1"/><line transform="translate(0,206)" x2="-5" y2="0" stroke="#888" stroke-width="1" opacity="1"/><line transform="translate(0,225)" x2="-5" y2="0" stroke="#888" stroke-width="1" opacity="1"/><line transform="translate(0,245)" x2="-5" y2="0" stroke="#888" stroke-width="1" opacity="1"/><line transform="translate(0,265)" x2="-5" y2="0" stroke="#888" stroke-width="1" opacity="1"/><line transform="translate(0,284)" x2="-5" y2="0" stroke="#888" stroke-width="1" opacity="1"/><line transform="translate(0,304)" x2="-5" y2="0" stroke="#888" stroke-width="1" opacity="1"/><line transform="translate(0,323)" x2="-5" y2="0" stroke="#888" stroke-width="1" opacity="1"/><line transform="translate(0,343)" x2="-5" y2="0" stroke="#888" stroke-width="1" opacity="1"/><line transform="translate(0,362)" x2="-5" y2="0" stroke="#888" stroke-width="1" opacity="1"/><line transform="translate(0,382)" x2="-5" y2="0" stroke="#888" stroke-width="1" opacity="1"/><line transform="translate(0,401)" x2="-5" y2="0" stroke="#888" stroke-width="1" opacity="1"/><line transform="translate(0,421)" x2="-5" y2="0" stroke="#888" stroke-width="1" opacity="1"/><line transform="translate(0,441)" x2="-5" y2="0" stroke="#888" stroke-width="1" opacity="1"/><line transform="translate(0,460)" x2="-5" y2="0" stroke="#888" stroke-width="1" opacity="1"/><line transform="translate(0,480)" x2="-5" y2="0" stroke="#888" stroke-width="1" opacity="1"/><line transform="translate(0,499)" x2="-5" y2="0" stroke="#888" stroke-width="1" opacity="1"/><line transform="translate(0,519)" x2="-5" y2="0" stroke="#888" stroke-width="1" opacity="1"/><line transform="translate(0,538)" x2="-5" y2="0" stroke="#888" stroke-width="1" opacity="1"/><line transform="translate(0,558)" x2="-5" y2="0" stroke="#888" stroke-width="1" opacity="1"/><line transform="translate(0,578)" x2="-5" y2="0" stroke="#888" stroke-width="1" opacity="1"/><line transform="translate(0,597)" x2="-5" y2="0" stroke="#888" stroke-width="1" opacity="1"/><line transform="translate(0,617)" x2="-5" y2="0" stroke="#888" stroke-width="1" opacity="1"/><line transform="translate(0,636)" x2="-5" y2="0" stroke="#888" stroke-width="1" opacity="1"/><line transform="translate(0,656)" x2="-5" y2="0" stroke="#888" stroke-width="1" opacity="1"/><line transform="translate(0,675)" x2="-5" y2="0" stroke="#888" stroke-width="1" opacity="1"/><line transform="translate(0,695)" x2="-5" y2="0" stroke="#888" stroke-width="1" opacity="1"/><line transform="translate(0,714)" x2="-5" y2="0" stroke="#888" stroke-width="1" opacity="1"/><line transform="translate(0,734)" x2="-5" y2="0" stroke="#888" stroke-width="1" opacity="1"/><line transform="translate(0,754)" x2="-5" y2="0" stroke="#888" stroke-width="1" opacity="1"/><line transform="translate(0,773)" x2="-5" y2="0" stroke="#888" stroke-width="1" opacity="1"/><line transform="translate(0,793)" x2="-5" y2="0" stroke="#888" stroke-width="1" opacity="1"/><line transform="translate(0,812)" x2="-5" y2="0" stroke="#888" stroke-width="1" opacity="1"/><line transform="translate(0,832)" x2="-5" y2="0" stroke="#888" stroke-width="1" opacity="1"/><line transform="translate(0,851)" x2="-5" y2="0" stroke="#888" stroke-width="1" opacity="1"/><line transform="translate(0,871)" x2="-5" y2="0" stroke="#888" stroke-width="1" opacity="1"/><line transform="translate(0,890)" x2="-5" y2="0" stroke="#888" stroke-width="1" opacity="1"/><line transform="translate(0,910)" x2="-5" y2="0" stroke="#888" stroke-width="1" opacity="1"/><line transform="translate(0,930)" x2="-5" y2="0" stroke="#888" stroke-width="1" opacity="1"/><line transform="translate(0,949)" x2="-5" y2="0" stroke="#888" stroke-width="1" opacity="1"/><line transform="translate(0,969)" x2="-5" y2="0" stroke="#888" stroke-width="1" opacity="1"/></g><g class="mark-text role-axis-label" pointer-events="none"><text text-anchor="end" transform="translate(-9,13.258483033932139)" font-family="sans-serif" font-size="10px" fill="#000" opacity="1">ubuntu:18.04</text><text text-anchor="end" transform="translate(-9,32.81936127744511)" font-family="sans-serif" font-size="10px" fill="#000" opacity="1">alpine:latest</text><text text-anchor="end" transform="translate(-9,52.380239520958085)" font-family="sans-serif" font-size="10px" fill="#000" opacity="1">ubuntu</text><text text-anchor="end" transform="translate(-9,71.94111776447106)" font-family="sans-serif" font-size="10px" fill="#000" opacity="1">alpine</text><text text-anchor="end" transform="translate(-9,91.50199600798403)" font-family="sans-serif" font-size="10px" fill="#000" opacity="1">ubuntu:latest</text><text text-anchor="end" transform="translate(-9,111.062874251497)" font-family="sans-serif" font-size="10px" fill="#000" opacity="1">ubuntu:16.04</text><text text-anchor="end" transform="translate(-9,130.62375249501)" font-family="sans-serif" font-size="10px" fill="#000" opacity="1">ubuntu:20.04</text><text text-anchor="end" transform="translate(-9,150.18463073852297)" font-family="sans-serif" font-size="10px" fill="#000" opacity="1">centos:7</text><text text-anchor="end" transform="translate(-9,169.74550898203594)" font-family="sans-serif" font-size="10px" fill="#000" opacity="1">ubuntu:bionic</text><text text-anchor="end" transform="translate(-9,189.30638722554892)" font-family="sans-serif" font-size="10px" fill="#000" opacity="1">alpine:3.11</text><text text-anchor="end" transform="translate(-9,208.8672654690619)" font-family="sans-serif" font-size="10px" fill="#000" opacity="1">scratch</text><text text-anchor="end" transform="translate(-9,228.42814371257487)" font-family="sans-serif" font-size="10px" fill="#000" opacity="1">alpine:3.10</text><text text-anchor="end" transform="translate(-9,247.98902195608784)" font-family="sans-serif" font-size="10px" fill="#000" opacity="1">debian:buster-slim</text><text text-anchor="end" transform="translate(-9,267.54990019960076)" font-family="sans-serif" font-size="10px" fill="#000" opacity="1">nginx</text><text text-anchor="end" transform="translate(-9,287.11077844311376)" font-family="sans-serif" font-size="10px" fill="#000" opacity="1">debian:9.5-slim</text><text text-anchor="end" transform="translate(-9,306.6716566866267)" font-family="sans-serif" font-size="10px" fill="#000" opacity="1">nginx:alpine</text><text text-anchor="end" transform="translate(-9,326.2325349301397)" font-family="sans-serif" font-size="10px" fill="#000" opacity="1">dockersamples/static-…</text><text text-anchor="end" transform="translate(-9,345.7934131736527)" font-family="sans-serif" font-size="10px" fill="#000" opacity="1">centos</text><text text-anchor="end" transform="translate(-9,365.35429141716565)" font-family="sans-serif" font-size="10px" fill="#000" opacity="1">debian:buster</text><text text-anchor="end" transform="translate(-9,384.9151696606786)" font-family="sans-serif" font-size="10px" fill="#000" opacity="1">node:13</text><text text-anchor="end" transform="translate(-9,404.4760479041916)" font-family="sans-serif" font-size="10px" fill="#000" opacity="1">node:alpine</text><text text-anchor="end" transform="translate(-9,424.0369261477046)" font-family="sans-serif" font-size="10px" fill="#000" opacity="1">node:10</text><text text-anchor="end" transform="translate(-9,443.59780439121755)" font-family="sans-serif" font-size="10px" fill="#000" opacity="1">centos:latest</text><text text-anchor="end" transform="translate(-9,463.1586826347305)" font-family="sans-serif" font-size="10px" fill="#000" opacity="1">jenkins/jenkins:lts</text><text text-anchor="end" transform="translate(-9,482.7195608782435)" font-family="sans-serif" font-size="10px" fill="#000" opacity="1">golang:alpine</text><text text-anchor="end" transform="translate(-9,502.2804391217565)" font-family="sans-serif" font-size="10px" fill="#000" opacity="1">python:3</text><text text-anchor="end" transform="translate(-9,521.8413173652694)" font-family="sans-serif" font-size="10px" fill="#000" opacity="1">node:12</text><text text-anchor="end" transform="translate(-9,541.4021956087823)" font-family="sans-serif" font-size="10px" fill="#000" opacity="1">nginx:latest</text><text text-anchor="end" transform="translate(-9,560.9630738522955)" font-family="sans-serif" font-size="10px" fill="#000" opacity="1">alpine:3.12</text><text text-anchor="end" transform="translate(-9,580.5239520958083)" font-family="sans-serif" font-size="10px" fill="#000" opacity="1">openjdk:8</text><text text-anchor="end" transform="translate(-9,600.0848303393212)" font-family="sans-serif" font-size="10px" fill="#000" opacity="1">ubuntu:14.04</text><text text-anchor="end" transform="translate(-9,619.6457085828343)" font-family="sans-serif" font-size="10px" fill="#000" opacity="1">ubuntu:focal</text><text text-anchor="end" transform="translate(-9,639.2065868263472)" font-family="sans-serif" font-size="10px" fill="#000" opacity="1">node:latest</text><text text-anchor="end" transform="translate(-9,658.7674650698604)" font-family="sans-serif" font-size="10px" fill="#000" opacity="1">debian:latest</text><text text-anchor="end" transform="translate(-9,678.3283433133732)" font-family="sans-serif" font-size="10px" fill="#000" opacity="1">debian</text><text text-anchor="end" transform="translate(-9,697.8892215568861)" font-family="sans-serif" font-size="10px" fill="#000" opacity="1">python:3.7</text><text text-anchor="end" transform="translate(-9,717.4500998003992)" font-family="sans-serif" font-size="10px" fill="#000" opacity="1">alpine:edge</text><text text-anchor="end" transform="translate(-9,737.0109780439121)" font-family="sans-serif" font-size="10px" fill="#000" opacity="1">php:7.4-fpm</text><text text-anchor="end" transform="translate(-9,756.571856287425)" font-family="sans-serif" font-size="10px" fill="#000" opacity="1">debian:stable-slim</text><text text-anchor="end" transform="translate(-9,776.1327345309381)" font-family="sans-serif" font-size="10px" fill="#000" opacity="1">centos:8</text><text text-anchor="end" transform="translate(-9,795.693612774451)" font-family="sans-serif" font-size="10px" fill="#000" opacity="1">python:3.7-alpine</text><text text-anchor="end" transform="translate(-9,815.2544910179641)" font-family="sans-serif" font-size="10px" fill="#000" opacity="1">debian:stretch</text><text text-anchor="end" transform="translate(-9,834.815369261477)" font-family="sans-serif" font-size="10px" fill="#000" opacity="1">php:7.4-apache</text><text text-anchor="end" transform="translate(-9,854.3762475049899)" font-family="sans-serif" font-size="10px" fill="#000" opacity="1">openjdk:8-jdk-alpine</text><text text-anchor="end" transform="translate(-9,873.937125748503)" font-family="sans-serif" font-size="10px" fill="#000" opacity="1">node:12-alpine</text><text text-anchor="end" transform="translate(-9,893.4980039920159)" font-family="sans-serif" font-size="10px" fill="#000" opacity="1">alpine:3</text><text text-anchor="end" transform="translate(-9,913.0588822355288)" font-family="sans-serif" font-size="10px" fill="#000" opacity="1">centos:centos7</text><text text-anchor="end" transform="translate(-9,932.6197604790419)" font-family="sans-serif" font-size="10px" fill="#000" opacity="1">ubuntu:22.04</text><text text-anchor="end" transform="translate(-9,952.1806387225548)" font-family="sans-serif" font-size="10px" fill="#000" opacity="1">python</text><text text-anchor="end" transform="translate(-9,971.7415169660679)" font-family="sans-serif" font-size="10px" fill="#000" opacity="1">php:7.4-fpm-alpine</text></g><g class="mark-rule role-axis-domain" pointer-events="none"><line transform="translate(0,0)" x2="0" y2="980" stroke="#888" stroke-width="1" opacity="1"/></g><g class="mark-text role-axis-title" pointer-events="none"><text text-anchor="middle" transform="translate(-189,490) rotate(-90) translate(0,-2)" font-family="sans-serif" font-size="11px" font-weight="bold" fill="#000" opacity="1">Image Reference</text></g></g><path class="foreground" aria-hidden="true" d="" pointer-events="none" display="none"/></g></g><g class="mark-group role-axis" role="graphics-symbol" aria-roledescription="axis" aria-label="X-axis titled 'Total Count' for a linear scale with values from 0 to 2,000"><g transform="translate(0.5,980.5)"><path class="background" aria-hidden="true" d="M0,0h0v0h0Z" pointer-events="none"/><g><g class="mark-rule role-axis-tick" pointer-events="none"><line transform="translate(0,0)" x2="0" y2="5" stroke="#888" stroke-width="1" opacity="1"/><line transform="translate(108,0)" x2="0" y2="5" stroke="#888" stroke-width="1" opacity="1"/><line transform="translate(216,0)" x2="0" y2="5" stroke="#888" stroke-width="1" opacity="1"/><line transform="translate(324,0)" x2="0" y2="5" stroke="#888" stroke-width="1" opacity="1"/><line transform="translate(432,0)" x2="0" y2="5" stroke="#888" stroke-width="1" opacity="1"/><line transform="translate(540,0)" x2="0" y2="5" stroke="#888" stroke-width="1" opacity="1"/><line transform="translate(648,0)" x2="0" y2="5" stroke="#888" stroke-width="1" opacity="1"/><line transform="translate(756,0)" x2="0" y2="5" stroke="#888" stroke-width="1" opacity="1"/><line transform="translate(864,0)" x2="0" y2="5" stroke="#888" stroke-width="1" opacity="1"/><line transform="translate(972,0)" x2="0" y2="5" stroke="#888" stroke-width="1" opacity="1"/><line transform="translate(1080,0)" x2="0" y2="5" stroke="#888" stroke-width="1" opacity="1"/></g><g class="mark-text role-axis-label" pointer-events="none"><text text-anchor="middle" transform="translate(0,15)" font-family="sans-serif" font-size="10px" fill="#000" opacity="1">0</text><text text-anchor="middle" transform="translate(108,15)" font-family="sans-serif" font-size="10px" fill="#000" opacity="1">200</text><text text-anchor="middle" transform="translate(216,15)" font-family="sans-serif" font-size="10px" fill="#000" opacity="1">400</text><text text-anchor="middle" transform="translate(324,15)" font-family="sans-serif" font-size="10px" fill="#000" opacity="1">600</text><text text-anchor="middle" transform="translate(432,15)" font-family="sans-serif" font-size="10px" fill="#000" opacity="1">800</text><text text-anchor="middle" transform="translate(540,15)" font-family="sans-serif" font-size="10px" fill="#000" opacity="1">1,000</text><text text-anchor="middle" transform="translate(648,15)" font-family="sans-serif" font-size="10px" fill="#000" opacity="1">1,200</text><text text-anchor="middle" transform="translate(756,15)" font-family="sans-serif" font-size="10px" fill="#000" opacity="1">1,400</text><text text-anchor="middle" transform="translate(864,15)" font-family="sans-serif" font-size="10px" fill="#000" opacity="1">1,600</text><text text-anchor="middle" transform="translate(972,15)" font-family="sans-serif" font-size="10px" fill="#000" opacity="1">1,800</text><text text-anchor="middle" transform="translate(1080,15)" font-family="sans-serif" font-size="10px" fill="#000" opacity="1">2,000</text></g><g class="mark-rule role-axis-domain" pointer-events="none"><line transform="translate(0,0)" x2="1080" y2="0" stroke="#888" stroke-width="1" opacity="1"/></g><g class="mark-text role-axis-title" pointer-events="none"><text text-anchor="middle" transform="translate(540,30)" font-family="sans-serif" font-size="11px" font-weight="bold" fill="#000" opacity="1">Total Count</text></g></g><path class="foreground" aria-hidden="true" d="" pointer-events="none" display="none"/></g></g><g class="mark-rect role-mark" role="graphics-symbol" aria-roledescription="rect mark container"><path d="M0,1.9560878243513002h1004.9399999999999v17.604790419161677h-1004.9399999999999Z" fill="steelblue"/><path d="M0,21.516966067864274h551.3399999999999v17.604790419161677h-551.3399999999999Z" fill="steelblue"/><path d="M0,41.07784431137725h467.64v17.604790419161677h-467.64Z" fill="steelblue"/><path d="M0,60.63872255489022h440.09999999999997v17.604790419161677h-440.09999999999997Z" fill="steelblue"/><path d="M0,80.1996007984032h426.06v17.604790419161677h-426.06Z" fill="steelblue"/><path d="M0,99.76047904191617h343.98v17.604790419161677h-343.98Z" fill="steelblue"/><path d="M0,119.32135728542914h325.62v17.604790419161677h-325.62Z" fill="steelblue"/><path d="M0,138.88223552894212h292.68v17.604790419161677h-292.68Z" fill="steelblue"/><path d="M0,158.4431137724551h248.4v17.604790419161677h-248.4Z" fill="steelblue"/><path d="M0,178.00399201596807h242.46v17.604790419161677h-242.46Z" fill="steelblue"/><path d="M0,197.56487025948104h240.84v17.604790419161677h-240.84Z" fill="steelblue"/><path d="M0,217.125748502994h217.08v17.604790419161677h-217.08Z" fill="steelblue"/><path d="M0,236.686626746507h211.14000000000001v17.604790419161677h-211.14000000000001Z" fill="steelblue"/><path d="M0,256.24750499001993h207.9v17.604790419161677h-207.9Z" fill="steelblue"/><path d="M0,275.80838323353294h171.18v17.604790419161677h-171.18Z" fill="steelblue"/><path d="M0,295.3692614770459h162v17.604790419161677h-162Z" fill="steelblue"/><path d="M0,314.9301397205589h161.45999999999998v17.604790419161677h-161.45999999999998Z" fill="steelblue"/><path d="M0,334.4910179640719h159.29999999999998v17.604790419161677h-159.29999999999998Z" fill="steelblue"/><path d="M0,354.05189620758483h157.67999999999998v17.604790419161677h-157.67999999999998Z" fill="steelblue"/><path d="M0,373.6127744510978h143.64000000000001v17.604790419161677h-143.64000000000001Z" fill="steelblue"/><path d="M0,393.1736526946108h140.94v17.604790419161677h-140.94Z" fill="steelblue"/><path d="M0,412.7345309381238h135.54v17.604790419161677h-135.54Z" fill="steelblue"/><path d="M0,432.2954091816367h118.8v17.604790419161677h-118.8Z" fill="steelblue"/><path d="M0,451.8562874251497h111.24v17.604790419161677h-111.24Z" fill="steelblue"/><path d="M0,471.4171656686627h110.16v17.604790419161677h-110.16Z" fill="steelblue"/><path d="M0,490.9780439121757h109.08000000000001v17.604790419161677h-109.08000000000001Z" fill="steelblue"/><path d="M0,510.5389221556886h103.68v17.604790419161677h-103.68Z" fill="steelblue"/><path d="M0,530.0998003992015h103.14v17.604790419161677h-103.14Z" fill="steelblue"/><path d="M0,549.6606786427146h94.5v17.604790419161677h-94.5Z" fill="steelblue"/><path d="M0,569.2215568862275h86.4v17.604790419161677h-86.4Z" fill="steelblue"/><path d="M0,588.7824351297404h85.32000000000001v17.604790419161677h-85.32000000000001Z" fill="steelblue"/><path d="M0,608.3433133732535h85.32000000000001v17.604790419161677h-85.32000000000001Z" fill="steelblue"/><path d="M0,627.9041916167664h83.7v17.604790419161677h-83.7Z" fill="steelblue"/><path d="M0,647.4650698602795h79.92v17.604790419161677h-79.92Z" fill="steelblue"/><path d="M0,667.0259481037924h77.75999999999999v17.604790419161677h-77.75999999999999Z" fill="steelblue"/><path d="M0,686.5868263473053h76.13999999999999v17.604790419161677h-76.13999999999999Z" fill="steelblue"/><path d="M0,706.1477045908184h73.98v17.604790419161677h-73.98Z" fill="steelblue"/><path d="M0,725.7085828343313h73.44000000000001v17.604790419161677h-73.44000000000001Z" fill="steelblue"/><path d="M0,745.2694610778442h72.36v17.604790419161677h-72.36Z" fill="steelblue"/><path d="M0,764.8303393213573h70.2v17.604790419161677h-70.2Z" fill="steelblue"/><path d="M0,784.3912175648702h69.66v17.604790419161677h-69.66Z" fill="steelblue"/><path d="M0,803.9520958083833h65.88v17.604790419161677h-65.88Z" fill="steelblue"/><path d="M0,823.5129740518962h63.72v17.604790419161677h-63.72Z" fill="steelblue"/><path d="M0,843.0738522954091h63.18000000000001v17.604790419161677h-63.18000000000001Z" fill="steelblue"/><path d="M0,862.6347305389222h62.1v17.604790419161677h-62.1Z" fill="steelblue"/><path d="M0,882.1956087824351h59.94v17.604790419161677h-59.94Z" fill="steelblue"/><path d="M0,901.756487025948h58.86v17.604790419161677h-58.86Z" fill="steelblue"/><path d="M0,921.3173652694611h57.78v17.604790419161677h-57.78Z" fill="steelblue"/><path d="M0,940.878243512974h57.239999999999995v17.604790419161677h-57.239999999999995Z" fill="steelblue"/><path d="M0,960.4391217564871h56.16v17.604790419161677h-56.16Z" fill="steelblue"/></g><g class="mark-text role-mark" role="graphics-object" aria-roledescription="text mark container"><text text-anchor="end" transform="translate(1000.9399999999999,13.758483033932139)" font-family="sans-serif" font-size="11px" fill="white">1861</text><text text-anchor="end" transform="translate(547.3399999999999,33.31936127744511)" font-family="sans-serif" font-size="11px" fill="white">1021</text><text text-anchor="end" transform="translate(463.64,52.880239520958085)" font-family="sans-serif" font-size="11px" fill="white">866</text><text text-anchor="end" transform="translate(436.09999999999997,72.44111776447106)" font-family="sans-serif" font-size="11px" fill="white">815</text><text text-anchor="end" transform="translate(422.06,92.00199600798403)" font-family="sans-serif" font-size="11px" fill="white">789</text><text text-anchor="end" transform="translate(339.98,111.562874251497)" font-family="sans-serif" font-size="11px" fill="white">637</text><text text-anchor="end" transform="translate(321.62,131.12375249501)" font-family="sans-serif" font-size="11px" fill="white">603</text><text text-anchor="end" transform="translate(288.68,150.68463073852297)" font-family="sans-serif" font-size="11px" fill="white">542</text><text text-anchor="end" transform="translate(244.4,170.24550898203594)" font-family="sans-serif" font-size="11px" fill="white">460</text><text text-anchor="end" transform="translate(238.46,189.80638722554892)" font-family="sans-serif" font-size="11px" fill="white">449</text><text text-anchor="end" transform="translate(236.84,209.3672654690619)" font-family="sans-serif" font-size="11px" fill="white">446</text><text text-anchor="end" transform="translate(213.08,228.92814371257487)" font-family="sans-serif" font-size="11px" fill="white">402</text><text text-anchor="end" transform="translate(207.14000000000001,248.48902195608784)" font-family="sans-serif" font-size="11px" fill="white">391</text><text text-anchor="end" transform="translate(203.9,268.04990019960076)" font-family="sans-serif" font-size="11px" fill="white">385</text><text text-anchor="end" transform="translate(167.18,287.61077844311376)" font-family="sans-serif" font-size="11px" fill="white">317</text><text text-anchor="end" transform="translate(158,307.1716566866267)" font-family="sans-serif" font-size="11px" fill="white">300</text><text text-anchor="end" transform="translate(157.45999999999998,326.7325349301397)" font-family="sans-serif" font-size="11px" fill="white">299</text><text text-anchor="end" transform="translate(155.29999999999998,346.2934131736527)" font-family="sans-serif" font-size="11px" fill="white">295</text><text text-anchor="end" transform="translate(153.67999999999998,365.85429141716565)" font-family="sans-serif" font-size="11px" fill="white">292</text><text text-anchor="end" transform="translate(139.64000000000001,385.4151696606786)" font-family="sans-serif" font-size="11px" fill="white">266</text><text text-anchor="end" transform="translate(136.94,404.9760479041916)" font-family="sans-serif" font-size="11px" fill="white">261</text><text text-anchor="end" transform="translate(131.54,424.5369261477046)" font-family="sans-serif" font-size="11px" fill="white">251</text><text text-anchor="end" transform="translate(114.8,444.09780439121755)" font-family="sans-serif" font-size="11px" fill="white">220</text><text text-anchor="end" transform="translate(107.24,463.6586826347305)" font-family="sans-serif" font-size="11px" fill="white">206</text><text text-anchor="end" transform="translate(106.16,483.2195608782435)" font-family="sans-serif" font-size="11px" fill="white">204</text><text text-anchor="end" transform="translate(105.08000000000001,502.7804391217565)" font-family="sans-serif" font-size="11px" fill="white">202</text><text text-anchor="end" transform="translate(99.68,522.3413173652694)" font-family="sans-serif" font-size="11px" fill="white">192</text><text text-anchor="end" transform="translate(99.14,541.9021956087823)" font-family="sans-serif" font-size="11px" fill="white">191</text><text text-anchor="end" transform="translate(90.5,561.4630738522955)" font-family="sans-serif" font-size="11px" fill="white">175</text><text text-anchor="end" transform="translate(82.4,581.0239520958083)" font-family="sans-serif" font-size="11px" fill="white">160</text><text text-anchor="end" transform="translate(81.32000000000001,600.5848303393212)" font-family="sans-serif" font-size="11px" fill="white">158</text><text text-anchor="end" transform="translate(81.32000000000001,620.1457085828343)" font-family="sans-serif" font-size="11px" fill="white">158</text><text text-anchor="end" transform="translate(79.7,639.7065868263472)" font-family="sans-serif" font-size="11px" fill="white">155</text><text text-anchor="end" transform="translate(75.92,659.2674650698604)" font-family="sans-serif" font-size="11px" fill="white">148</text><text text-anchor="end" transform="translate(73.75999999999999,678.8283433133732)" font-family="sans-serif" font-size="11px" fill="white">144</text><text text-anchor="end" transform="translate(72.13999999999999,698.3892215568861)" font-family="sans-serif" font-size="11px" fill="white">141</text><text text-anchor="end" transform="translate(69.98,717.9500998003992)" font-family="sans-serif" font-size="11px" fill="white">137</text><text text-anchor="end" transform="translate(69.44000000000001,737.5109780439121)" font-family="sans-serif" font-size="11px" fill="white">136</text><text text-anchor="end" transform="translate(68.36,757.071856287425)" font-family="sans-serif" font-size="11px" fill="white">134</text><text text-anchor="end" transform="translate(66.2,776.6327345309381)" font-family="sans-serif" font-size="11px" fill="white">130</text><text text-anchor="end" transform="translate(65.66,796.193612774451)" font-family="sans-serif" font-size="11px" fill="white">129</text><text text-anchor="end" transform="translate(61.879999999999995,815.7544910179641)" font-family="sans-serif" font-size="11px" fill="white">122</text><text text-anchor="end" transform="translate(59.72,835.315369261477)" font-family="sans-serif" font-size="11px" fill="white">118</text><text text-anchor="end" transform="translate(59.18000000000001,854.8762475049899)" font-family="sans-serif" font-size="11px" fill="white">117</text><text text-anchor="end" transform="translate(58.1,874.437125748503)" font-family="sans-serif" font-size="11px" fill="white">115</text><text text-anchor="end" transform="translate(55.94,893.9980039920159)" font-family="sans-serif" font-size="11px" fill="white">111</text><text text-anchor="end" transform="translate(54.86,913.5588822355288)" font-family="sans-serif" font-size="11px" fill="white">109</text><text text-anchor="end" transform="translate(53.78,933.1197604790419)" font-family="sans-serif" font-size="11px" fill="white">107</text><text text-anchor="end" transform="translate(53.239999999999995,952.6806387225548)" font-family="sans-serif" font-size="11px" fill="white">106</text><text text-anchor="end" transform="translate(52.16,972.2415169660679)" font-family="sans-serif" font-size="11px" fill="white">104</text></g><g class="mark-group role-title"><g transform="translate(450,-17)"><path class="background" aria-hidden="true" d="M0,0h0v0h0Z" pointer-events="none"/><g><g class="mark-text role-title-text" role="graphics-symbol" aria-roledescription="title" aria-label="Title text 'Top 50 Images Used By GitHub Dockerfiles At 2023-08-02 10:02:06'" pointer-events="none"><text text-anchor="middle" transform="translate(0,10)" font-family="sans-serif" font-size="13px" font-weight="bold" fill="#000" opacity="1">Top 50 Images Used By GitHub Dockerfiles At 2023-08-02 10:02:06</text></g></g><path class="foreground" aria-hidden="true" d="" pointer-events="none" display="none"/></g></g></g><path class="foreground" aria-hidden="true" d="" display="none"/></g></g></g></svg>