<svg xmlns="http://www.w3.org/2000/svg" xmlns:xlink="http://www.w3.org/1999/xlink" version="1.1" class="marks" width="830" height="459" viewBox="0 0 830 459"><rect width="830" height="459" fill="white"/><g fill="none" stroke-miterlimit="10" transform="translate(205,22)"><g class="mark-group role-frame root" role="graphics-object" aria-roledescription="group mark container"><g transform="translate(0,0)"><path class="background" aria-hidden="true" d="M0,0h600v400h-600Z"/><g><g class="mark-group role-axis" role="graphics-symbol" aria-roledescription="axis" aria-label="Y-axis titled 'Image Reference' for a discrete scale with 25 values: ubuntu:18.04, alpine:latest, alpine, ubuntu, ubuntu:latest, ending with centos"><g transform="translate(0.5,0.5)"><path class="background" aria-hidden="true" d="M0,0h0v0h0Z" pointer-events="none"/><g><g class="mark-rule role-axis-tick" pointer-events="none"><line transform="translate(0,8)" x2="-5" y2="0" stroke="#888" stroke-width="1" opacity="1"/><line transform="translate(0,24)" x2="-5" y2="0" stroke="#888" stroke-width="1" opacity="1"/><line transform="translate(0,40)" x2="-5" y2="0" stroke="#888" stroke-width="1" opacity="1"/><line transform="translate(0,56)" x2="-5" y2="0" stroke="#888" stroke-width="1" opacity="1"/><line transform="translate(0,72)" x2="-5" y2="0" stroke="#888" stroke-width="1" opacity="1"/><line transform="translate(0,88)" x2="-5" y2="0" stroke="#888" stroke-width="1" opacity="1"/><line transform="translate(0,104)" x2="-5" y2="0" stroke="#888" stroke-width="1" opacity="1"/><line transform="translate(0,120)" x2="-5" y2="0" stroke="#888" stroke-width="1" opacity="1"/><line transform="translate(0,136)" x2="-5" y2="0" stroke="#888" stroke-width="1" opacity="1"/><line transform="translate(0,152)" x2="-5" y2="0" stroke="#888" stroke-width="1" opacity="1"/><line transform="translate(0,168)" x2="-5" y2="0" stroke="#888" stroke-width="1" opacity="1"/><line transform="translate(0,184)" x2="-5" y2="0" stroke="#888" stroke-width="1" opacity="1"/><line transform="translate(0,200)" x2="-5" y2="0" stroke="#888" stroke-width="1" opacity="1"/><line transform="translate(0,215)" x2="-5" y2="0" stroke="#888" stroke-width="1" opacity="1"/><line transform="translate(0,231)" x2="-5" y2="0" stroke="#888" stroke-width="1" opacity="1"/><line transform="translate(0,247)" x2="-5" y2="0" stroke="#888" stroke-width="1" opacity="1"/><line transform="translate(0,263)" x2="-5" y2="0" stroke="#888" stroke-width="1" opacity="1"/><line transform="translate(0,279)" x2="-5" y2="0" stroke="#888" stroke-width="1" opacity="1"/><line transform="translate(0,295)" x2="-5" y2="0" stroke="#888" stroke-width="1" opacity="1"/><line transform="translate(0,311)" x2="-5" y2="0" stroke="#888" stroke-width="1" opacity="1"/><line transform="translate(0,327)" x2="-5" y2="0" stroke="#888" stroke-width="1" opacity="1"/><line transform="translate(0,343)" x2="-5" y2="0" stroke="#888" stroke-width="1" opacity="1"/><line transform="translate(0,359)" x2="-5" y2="0" stroke="#888" stroke-width="1" opacity="1"/><line transform="translate(0,375)" x2="-5" y2="0" stroke="#888" stroke-width="1" opacity="1"/><line transform="translate(0,391)" x2="-5" y2="0" stroke="#888" stroke-width="1" opacity="1"/></g><g class="mark-text role-axis-label" pointer-events="none"><text text-anchor="end" transform="translate(-9,11.26494023904381)" font-family="sans-serif" font-size="10px" fill="#000" opacity="1">ubuntu:18.04</text><text text-anchor="end" transform="translate(-9,27.20119521912349)" font-family="sans-serif" font-size="10px" fill="#000" opacity="1">alpine:latest</text><text text-anchor="end" transform="translate(-9,43.13745019920317)" font-family="sans-serif" font-size="10px" fill="#000" opacity="1">alpine</text><text text-anchor="end" transform="translate(-9,59.07370517928286)" font-family="sans-serif" font-size="10px" fill="#000" opacity="1">ubuntu</text><text text-anchor="end" transform="translate(-9,75.00996015936254)" font-family="sans-serif" font-size="10px" fill="#000" opacity="1">ubuntu:latest</text><text text-anchor="end" transform="translate(-9,90.94621513944223)" font-family="sans-serif" font-size="10px" fill="#000" opacity="1">ubuntu:16.04</text><text text-anchor="end" transform="translate(-9,106.88247011952191)" font-family="sans-serif" font-size="10px" fill="#000" opacity="1">alpine:3.11</text><text text-anchor="end" transform="translate(-9,122.8187250996016)" font-family="sans-serif" font-size="10px" fill="#000" opacity="1">centos:7</text><text text-anchor="end" transform="translate(-9,138.75498007968127)" font-family="sans-serif" font-size="10px" fill="#000" opacity="1">ubuntu:bionic</text><text text-anchor="end" transform="translate(-9,154.69123505976097)" font-family="sans-serif" font-size="10px" fill="#000" opacity="1">scratch</text><text text-anchor="end" transform="translate(-9,170.62749003984067)" font-family="sans-serif" font-size="10px" fill="#000" opacity="1">alpine:3.10</text><text text-anchor="end" transform="translate(-9,186.5637450199203)" font-family="sans-serif" font-size="10px" fill="#000" opacity="1">debian:buster-slim</text><text text-anchor="end" transform="translate(-9,202.5)" font-family="sans-serif" font-size="10px" fill="#000" opacity="1">nginx</text><text text-anchor="end" transform="translate(-9,218.4362549800797)" font-family="sans-serif" font-size="10px" fill="#000" opacity="1">ubuntu:20.04</text><text text-anchor="end" transform="translate(-9,234.3725099601594)" font-family="sans-serif" font-size="10px" fill="#000" opacity="1">node:10</text><text text-anchor="end" transform="translate(-9,250.30876494023903)" font-family="sans-serif" font-size="10px" fill="#000" opacity="1">nginx:alpine</text><text text-anchor="end" transform="translate(-9,266.2450199203188)" font-family="sans-serif" font-size="10px" fill="#000" opacity="1">dockersamples/static-…</text><text text-anchor="end" transform="translate(-9,282.1812749003984)" font-family="sans-serif" font-size="10px" fill="#000" opacity="1">node:alpine</text><text text-anchor="end" transform="translate(-9,298.1175298804781)" font-family="sans-serif" font-size="10px" fill="#000" opacity="1">debian:buster</text><text text-anchor="end" transform="translate(-9,314.0537848605578)" font-family="sans-serif" font-size="10px" fill="#000" opacity="1">debian:9.5-slim</text><text text-anchor="end" transform="translate(-9,329.9900398406375)" font-family="sans-serif" font-size="10px" fill="#000" opacity="1">python:3</text><text text-anchor="end" transform="translate(-9,345.92629482071715)" font-family="sans-serif" font-size="10px" fill="#000" opacity="1">golang:alpine</text><text text-anchor="end" transform="translate(-9,361.86254980079684)" font-family="sans-serif" font-size="10px" fill="#000" opacity="1">jenkins/jenkins:lts</text><text text-anchor="end" transform="translate(-9,377.79880478087654)" font-family="sans-serif" font-size="10px" fill="#000" opacity="1">nginx:latest</text><text text-anchor="end" transform="translate(-9,393.73505976095623)" font-family="sans-serif" font-size="10px" fill="#000" opacity="1">centos</text></g><g class="mark-rule role-axis-domain" pointer-events="none"><line transform="translate(0,0)" x2="0" y2="400" stroke="#888" stroke-width="1" opacity="1"/></g><g class="mark-text role-axis-title" pointer-events="none"><text text-anchor="middle" transform="translate(-189,200) rotate(-90) translate(0,-2)" font-family="sans-serif" font-size="11px" font-weight="bold" fill="#000" opacity="1">Image Reference</text></g></g><path class="foreground" aria-hidden="true" d="" pointer-events="none" display="none"/></g></g><g class="mark-group role-axis" role="graphics-symbol" aria-roledescription="axis" aria-label="X-axis titled 'Total Count' for a linear scale with values from 0 to 1,200"><g transform="translate(0.5,400.5)"><path class="background" aria-hidden="true" d="M0,0h0v0h0Z" pointer-events="none"/><g><g class="mark-rule role-axis-tick" pointer-events="none"><line transform="translate(0,0)" x2="0" y2="5" stroke="#888" stroke-width="1" opacity="1"/><line transform="translate(50,0)" x2="0" y2="5" stroke="#888" stroke-width="1" opacity="1"/><line transform="translate(100,0)" x2="0" y2="5" stroke="#888" stroke-width="1" opacity="1"/><line transform="translate(150,0)" x2="0" y2="5" stroke="#888" stroke-width="1" opacity="1"/><line transform="translate(200,0)" x2="0" y2="5" stroke="#888" stroke-width="1" opacity="1"/><line transform="translate(250,0)" x2="0" y2="5" stroke="#888" stroke-width="1" opacity="1"/><line transform="translate(300,0)" x2="0" y2="5" stroke="#888" stroke-width="1" opacity="1"/><line transform="translate(350,0)" x2="0" y2="5" stroke="#888" stroke-width="1" opacity="1"/><line transform="translate(400,0)" x2="0" y2="5" stroke="#888" stroke-width="1" opacity="1"/><line transform="translate(450,0)" x2="0" y2="5" stroke="#888" stroke-width="1" opacity="1"/><line transform="translate(500,0)" x2="0" y2="5" stroke="#888" stroke-width="1" opacity="1"/><line transform="translate(550,0)" x2="0" y2="5" stroke="#888" stroke-width="1" opacity="1"/><line transform="translate(600,0)" x2="0" y2="5" stroke="#888" stroke-width="1" opacity="1"/></g><g class="mark-text role-axis-label" pointer-events="none"><text text-anchor="middle" transform="translate(0,15)" font-family="sans-serif" font-size="10px" fill="#000" opacity="1">0</text><text text-anchor="middle" transform="translate(50,15)" font-family="sans-serif" font-size="10px" fill="#000" opacity="1">100</text><text text-anchor="middle" transform="translate(100,15)" font-family="sans-serif" font-size="10px" fill="#000" opacity="1">200</text><text text-anchor="middle" transform="translate(150,15)" font-family="sans-serif" font-size="10px" fill="#000" opacity="1">300</text><text text-anchor="middle" transform="translate(200,15)" font-family="sans-serif" font-size="10px" fill="#000" opacity="1">400</text><text text-anchor="middle" transform="translate(250,15)" font-family="sans-serif" font-size="10px" fill="#000" opacity="1">500</text><text text-anchor="middle" transform="translate(300,15)" font-family="sans-serif" font-size="10px" fill="#000" opacity="1">600</text><text text-anchor="middle" transform="translate(350,15)" font-family="sans-serif" font-size="10px" fill="#000" opacity="1">700</text><text text-anchor="middle" transform="translate(400,15)" font-family="sans-serif" font-size="10px" fill="#000" opacity="1">800</text><text text-anchor="middle" transform="translate(450,15)" font-family="sans-serif" font-size="10px" fill="#000" opacity="1">900</text><text text-anchor="middle" transform="translate(500,15)" font-family="sans-serif" font-size="10px" fill="#000" opacity="1">1,000</text><text text-anchor="middle" transform="translate(550,15)" font-family="sans-serif" font-size="10px" fill="#000" opacity="1">1,100</text><text text-anchor="middle" transform="translate(600,15)" font-family="sans-serif" font-size="10px" fill="#000" opacity="1">1,200</text></g><g class="mark-rule role-axis-domain" pointer-events="none"><line transform="translate(0,0)" x2="600" y2="0" stroke="#888" stroke-width="1" opacity="1"/></g><g class="mark-text role-axis-title" pointer-events="none"><text text-anchor="middle" transform="translate(300,30)" font-family="sans-serif" font-size="11px" font-weight="bold" fill="#000" opacity="1">Total Count</text></g></g><path class="foreground" aria-hidden="true" d="" pointer-events="none" display="none"/></g></g><g class="mark-rect role-mark" role="graphics-symbol" aria-roledescription="rect mark container"><path d="M0,1.5936254980079525h570v14.342629482071715h-570Z" fill="steelblue"/><path d="M0,17.529880478087634h303v14.342629482071715h-303Z" fill="steelblue"/><path d="M0,33.466135458167315h248.5v14.342629482071715h-248.5Z" fill="steelblue"/><path d="M0,49.402390438247004h247v14.342629482071715h-247Z" fill="steelblue"/><path d="M0,65.33864541832668h232.5v14.342629482071715h-232.5Z" fill="steelblue"/><path d="M0,81.27490039840637h202.5v14.342629482071715h-202.5Z" fill="steelblue"/><path d="M0,97.21115537848605h144.5v14.342629482071715h-144.5Z" fill="steelblue"/><path d="M0,113.14741035856574h144.5v14.342629482071715h-144.5Z" fill="steelblue"/><path d="M0,129.0836653386454h130.5v14.342629482071715h-130.5Z" fill="steelblue"/><path d="M0,145.0199203187251h123.5v14.342629482071715h-123.5Z" fill="steelblue"/><path d="M0,160.9561752988048h123.5v14.342629482071715h-123.5Z" fill="steelblue"/><path d="M0,176.89243027888446h114v14.342629482071715h-114Z" fill="steelblue"/><path d="M0,192.82868525896416h107v14.342629482071715h-107Z" fill="steelblue"/><path d="M0,208.76494023904382h99.5v14.342629482071715h-99.5Z" fill="steelblue"/><path d="M0,224.70119521912352h89.5v14.342629482071715h-89.5Z" fill="steelblue"/><path d="M0,240.6374501992032h78.99999999999999v14.342629482071715h-78.99999999999999Z" fill="steelblue"/><path d="M0,256.5737051792829h78v14.342629482071715h-78Z" fill="steelblue"/><path d="M0,272.50996015936255h74v14.342629482071715h-74Z" fill="steelblue"/><path d="M0,288.44621513944224h66.5v14.342629482071715h-66.5Z" fill="steelblue"/><path d="M0,304.38247011952194h66v14.342629482071715h-66Z" fill="steelblue"/><path d="M0,320.31872509960164h64v14.342629482071715h-64Z" fill="steelblue"/><path d="M0,336.2549800796813h59v14.342629482071715h-59Z" fill="steelblue"/><path d="M0,352.19123505976097h58v14.342629482071715h-58Z" fill="steelblue"/><path d="M0,368.12749003984067h55.5v14.342629482071715h-55.5Z" fill="steelblue"/><path d="M0,384.06374501992036h52v14.342629482071715h-52Z" fill="steelblue"/></g><g class="mark-text role-mark" role="graphics-object" aria-roledescription="text mark container"><text text-anchor="end" transform="translate(566,11.76494023904381)" font-family="sans-serif" font-size="11px" fill="white">1140</text><text text-anchor="end" transform="translate(299,27.70119521912349)" font-family="sans-serif" font-size="11px" fill="white">606</text><text text-anchor="end" transform="translate(244.5,43.63745019920317)" font-family="sans-serif" font-size="11px" fill="white">497</text><text text-anchor="end" transform="translate(243,59.57370517928286)" font-family="sans-serif" font-size="11px" fill="white">494</text><text text-anchor="end" transform="translate(228.5,75.50996015936254)" font-family="sans-serif" font-size="11px" fill="white">465</text><text text-anchor="end" transform="translate(198.5,91.44621513944223)" font-family="sans-serif" font-size="11px" fill="white">405</text><text text-anchor="end" transform="translate(140.5,107.38247011952191)" font-family="sans-serif" font-size="11px" fill="white">289</text><text text-anchor="end" transform="translate(140.5,123.3187250996016)" font-family="sans-serif" font-size="11px" fill="white">289</text><text text-anchor="end" transform="translate(126.5,139.25498007968127)" font-family="sans-serif" font-size="11px" fill="white">261</text><text text-anchor="end" transform="translate(119.5,155.19123505976097)" font-family="sans-serif" font-size="11px" fill="white">247</text><text text-anchor="end" transform="translate(119.5,171.12749003984067)" font-family="sans-serif" font-size="11px" fill="white">247</text><text text-anchor="end" transform="translate(110,187.0637450199203)" font-family="sans-serif" font-size="11px" fill="white">228</text><text text-anchor="end" transform="translate(103,203)" font-family="sans-serif" font-size="11px" fill="white">214</text><text text-anchor="end" transform="translate(95.5,218.9362549800797)" font-family="sans-serif" font-size="11px" fill="white">199</text><text text-anchor="end" transform="translate(85.5,234.8725099601594)" font-family="sans-serif" font-size="11px" fill="white">179</text><text text-anchor="end" transform="translate(74.99999999999999,250.80876494023903)" font-family="sans-serif" font-size="11px" fill="white">158</text><text text-anchor="end" transform="translate(74,266.7450199203188)" font-family="sans-serif" font-size="11px" fill="white">156</text><text text-anchor="end" transform="translate(70,282.6812749003984)" font-family="sans-serif" font-size="11px" fill="white">148</text><text text-anchor="end" transform="translate(62.5,298.6175298804781)" font-family="sans-serif" font-size="11px" fill="white">133</text><text text-anchor="end" transform="translate(62,314.5537848605578)" font-family="sans-serif" font-size="11px" fill="white">132</text><text text-anchor="end" transform="translate(60,330.4900398406375)" font-family="sans-serif" font-size="11px" fill="white">128</text><text text-anchor="end" transform="translate(55,346.42629482071715)" font-family="sans-serif" font-size="11px" fill="white">118</text><text text-anchor="end" transform="translate(54,362.36254980079684)" font-family="sans-serif" font-size="11px" fill="white">116</text><text text-anchor="end" transform="translate(51.5,378.29880478087654)" font-family="sans-serif" font-size="11px" fill="white">111</text><text text-anchor="end" transform="translate(48,394.23505976095623)" font-family="sans-serif" font-size="11px" fill="white">104</text></g><g class="mark-group role-title"><g transform="translate(210,-17)"><path class="background" aria-hidden="true" d="M0,0h0v0h0Z" pointer-events="none"/><g><g class="mark-text role-title-text" role="graphics-symbol" aria-roledescription="title" aria-label="Title text 'Top 25 Images Used By GitHub Dockerfiles At 2023-08-01 18:16:45'" pointer-events="none"><text text-anchor="middle" transform="translate(0,10)" font-family="sans-serif" font-size="13px" font-weight="bold" fill="#000" opacity="1">Top 25 Images Used By GitHub Dockerfiles At 2023-08-01 18:16:45</text></g></g><path class="foreground" aria-hidden="true" d="" pointer-events="none" display="none"/></g></g></g><path class="foreground" aria-hidden="true" d="" display="none"/></g></g></g></svg>