<svg xmlns="http://www.w3.org/2000/svg" xmlns:xlink="http://www.w3.org/1999/xlink" version="1.1" class="marks" width="1310" height="1039" viewBox="0 0 1310 1039"><rect width="1310" height="1039" fill="white"/><g fill="none" stroke-miterlimit="10" transform="translate(205,22)"><g class="mark-group role-frame root" role="graphics-object" aria-roledescription="group mark container"><g transform="translate(0,0)"><path class="background" aria-hidden="true" d="M0,0h1080v980h-1080Z"/><g><g class="mark-group role-axis" role="graphics-symbol" aria-roledescription="axis" aria-label="Y-axis titled 'Image Reference' for a discrete scale with 50 values: ubuntu:18.04, alpine:latest, ubuntu, alpine, ubuntu:latest, ending with ubuntu:22.04"><g transform="translate(0.5,0.5)"><path class="background" aria-hidden="true" d="M0,0h0v0h0Z" pointer-events="none"/><g><g class="mark-rule role-axis-tick" pointer-events="none"><line transform="translate(0,10)" x2="-5" y2="0" stroke="#888" stroke-width="1" opacity="1"/><line transform="translate(0,30)" x2="-5" y2="0" stroke="#888" stroke-width="1" opacity="1"/><line transform="translate(0,49)" x2="-5" y2="0" stroke="#888" stroke-width="1" opacity="1"/><line transform="translate(0,69)" x2="-5" y2="0" stroke="#888" stroke-width="1" opacity="1"/><line transform="translate(0,89)" x2="-5" y2="0" stroke="#888" stroke-width="1" opacity="1"/><line transform="translate(0,108)" x2="-5" y2="0" stroke="#888" stroke-width="1" opacity="1"/><line transform="translate(0,128)" x2="-5" y2="0" stroke="#888" stroke-width="1" opacity="1"/><line transform="translate(0,147)" x2="-5" y2="0" stroke="#888" stroke-width="1" opacity="1"/><line transform="translate(0,167)" x2="-5" y2="0" stroke="#888" stroke-width="1" opacity="1"/><line transform="translate(0,186)" x2="-5" y2="0" stroke="#888" stroke-width="1" opacity="1"/><line transform="translate(0,206)" x2="-5" y2="0" stroke="#888" stroke-width="1" opacity="1"/><line transform="translate(0,225)" x2="-5" y2="0" stroke="#888" stroke-width="1" opacity="1"/><line transform="translate(0,245)" x2="-5" y2="0" stroke="#888" stroke-width="1" opacity="1"/><line transform="translate(0,265)" x2="-5" y2="0" stroke="#888" stroke-width="1" opacity="1"/><line transform="translate(0,284)" x2="-5" y2="0" stroke="#888" stroke-width="1" opacity="1"/><line transform="translate(0,304)" x2="-5" y2="0" stroke="#888" stroke-width="1" opacity="1"/><line transform="translate(0,323)" x2="-5" y2="0" stroke="#888" stroke-width="1" opacity="1"/><line transform="translate(0,343)" x2="-5" y2="0" stroke="#888" stroke-width="1" opacity="1"/><line transform="translate(0,362)" x2="-5" y2="0" stroke="#888" stroke-width="1" opacity="1"/><line transform="translate(0,382)" x2="-5" y2="0" stroke="#888" stroke-width="1" opacity="1"/><line transform="translate(0,401)" x2="-5" y2="0" stroke="#888" stroke-width="1" opacity="1"/><line transform="translate(0,421)" x2="-5" y2="0" stroke="#888" stroke-width="1" opacity="1"/><line transform="translate(0,441)" x2="-5" y2="0" stroke="#888" stroke-width="1" opacity="1"/><line transform="translate(0,460)" x2="-5" y2="0" stroke="#888" stroke-width="1" opacity="1"/><line transform="translate(0,480)" x2="-5" y2="0" stroke="#888" stroke-width="1" opacity="1"/><line transform="translate(0,499)" x2="-5" y2="0" stroke="#888" stroke-width="1" opacity="1"/><line transform="translate(0,519)" x2="-5" y2="0" stroke="#888" stroke-width="1" opacity="1"/><line transform="translate(0,538)" x2="-5" y2="0" stroke="#888" stroke-width="1" opacity="1"/><line transform="translate(0,558)" x2="-5" y2="0" stroke="#888" stroke-width="1" opacity="1"/><line transform="translate(0,578)" x2="-5" y2="0" stroke="#888" stroke-width="1" opacity="1"/><line transform="translate(0,597)" x2="-5" y2="0" stroke="#888" stroke-width="1" opacity="1"/><line transform="translate(0,617)" x2="-5" y2="0" stroke="#888" stroke-width="1" opacity="1"/><line transform="translate(0,636)" x2="-5" y2="0" stroke="#888" stroke-width="1" opacity="1"/><line transform="translate(0,656)" x2="-5" y2="0" stroke="#888" stroke-width="1" opacity="1"/><line transform="translate(0,675)" x2="-5" y2="0" stroke="#888" stroke-width="1" opacity="1"/><line transform="translate(0,695)" x2="-5" y2="0" stroke="#888" stroke-width="1" opacity="1"/><line transform="translate(0,714)" x2="-5" y2="0" stroke="#888" stroke-width="1" opacity="1"/><line transform="translate(0,734)" x2="-5" y2="0" stroke="#888" stroke-width="1" opacity="1"/><line transform="translate(0,754)" x2="-5" y2="0" stroke="#888" stroke-width="1" opacity="1"/><line transform="translate(0,773)" x2="-5" y2="0" stroke="#888" stroke-width="1" opacity="1"/><line transform="translate(0,793)" x2="-5" y2="0" stroke="#888" stroke-width="1" opacity="1"/><line transform="translate(0,812)" x2="-5" y2="0" stroke="#888" stroke-width="1" opacity="1"/><line transform="translate(0,832)" x2="-5" y2="0" stroke="#888" stroke-width="1" opacity="1"/><line transform="translate(0,851)" x2="-5" y2="0" stroke="#888" stroke-width="1" opacity="1"/><line transform="translate(0,871)" x2="-5" y2="0" stroke="#888" stroke-width="1" opacity="1"/><line transform="translate(0,890)" x2="-5" y2="0" stroke="#888" stroke-width="1" opacity="1"/><line transform="translate(0,910)" x2="-5" y2="0" stroke="#888" stroke-width="1" opacity="1"/><line transform="translate(0,930)" x2="-5" y2="0" stroke="#888" stroke-width="1" opacity="1"/><line transform="translate(0,949)" x2="-5" y2="0" stroke="#888" stroke-width="1" opacity="1"/><line transform="translate(0,969)" x2="-5" y2="0" stroke="#888" stroke-width="1" opacity="1"/></g><g class="mark-text role-axis-label" pointer-events="none"><text text-anchor="end" transform="translate(-9,13.258483033932139)" font-family="sans-serif" font-size="10px" fill="#000" opacity="1">ubuntu:18.04</text><text text-anchor="end" transform="translate(-9,32.81936127744511)" font-family="sans-serif" font-size="10px" fill="#000" opacity="1">alpine:latest</text><text text-anchor="end" transform="translate(-9,52.380239520958085)" font-family="sans-serif" font-size="10px" fill="#000" opacity="1">ubuntu</text><text text-anchor="end" transform="translate(-9,71.94111776447106)" font-family="sans-serif" font-size="10px" fill="#000" opacity="1">alpine</text><text text-anchor="end" transform="translate(-9,91.50199600798403)" font-family="sans-serif" font-size="10px" fill="#000" opacity="1">ubuntu:latest</text><text text-anchor="end" transform="translate(-9,111.062874251497)" font-family="sans-serif" font-size="10px" fill="#000" opacity="1">ubuntu:16.04</text><text text-anchor="end" transform="translate(-9,130.62375249501)" font-family="sans-serif" font-size="10px" fill="#000" opacity="1">ubuntu:20.04</text><text text-anchor="end" transform="translate(-9,150.18463073852297)" font-family="sans-serif" font-size="10px" fill="#000" opacity="1">centos:7</text><text text-anchor="end" transform="translate(-9,169.74550898203594)" font-family="sans-serif" font-size="10px" fill="#000" opacity="1">ubuntu:bionic</text><text text-anchor="end" transform="translate(-9,189.30638722554892)" font-family="sans-serif" font-size="10px" fill="#000" opacity="1">scratch</text><text text-anchor="end" transform="translate(-9,208.8672654690619)" font-family="sans-serif" font-size="10px" fill="#000" opacity="1">alpine:3.11</text><text text-anchor="end" transform="translate(-9,228.42814371257487)" font-family="sans-serif" font-size="10px" fill="#000" opacity="1">alpine:3.10</text><text text-anchor="end" transform="translate(-9,247.98902195608784)" font-family="sans-serif" font-size="10px" fill="#000" opacity="1">nginx</text><text text-anchor="end" transform="translate(-9,267.54990019960076)" font-family="sans-serif" font-size="10px" fill="#000" opacity="1">debian:buster-slim</text><text text-anchor="end" transform="translate(-9,287.11077844311376)" font-family="sans-serif" font-size="10px" fill="#000" opacity="1">debian:9.5-slim</text><text text-anchor="end" transform="translate(-9,306.6716566866267)" font-family="sans-serif" font-size="10px" fill="#000" opacity="1">nginx:alpine</text><text text-anchor="end" transform="translate(-9,326.2325349301397)" font-family="sans-serif" font-size="10px" fill="#000" opacity="1">dockersamples/static-…</text><text text-anchor="end" transform="translate(-9,345.7934131736527)" font-family="sans-serif" font-size="10px" fill="#000" opacity="1">centos</text><text text-anchor="end" transform="translate(-9,365.35429141716565)" font-family="sans-serif" font-size="10px" fill="#000" opacity="1">debian:buster</text><text text-anchor="end" transform="translate(-9,384.9151696606786)" font-family="sans-serif" font-size="10px" fill="#000" opacity="1">node:13</text><text text-anchor="end" transform="translate(-9,404.4760479041916)" font-family="sans-serif" font-size="10px" fill="#000" opacity="1">node:alpine</text><text text-anchor="end" transform="translate(-9,424.0369261477046)" font-family="sans-serif" font-size="10px" fill="#000" opacity="1">node:10</text><text text-anchor="end" transform="translate(-9,443.59780439121755)" font-family="sans-serif" font-size="10px" fill="#000" opacity="1">centos:latest</text><text text-anchor="end" transform="translate(-9,463.1586826347305)" font-family="sans-serif" font-size="10px" fill="#000" opacity="1">node:12</text><text text-anchor="end" transform="translate(-9,482.7195608782435)" font-family="sans-serif" font-size="10px" fill="#000" opacity="1">golang:alpine</text><text text-anchor="end" transform="translate(-9,502.2804391217565)" font-family="sans-serif" font-size="10px" fill="#000" opacity="1">jenkins/jenkins:lts</text><text text-anchor="end" transform="translate(-9,521.8413173652694)" font-family="sans-serif" font-size="10px" fill="#000" opacity="1">python:3</text><text text-anchor="end" transform="translate(-9,541.4021956087823)" font-family="sans-serif" font-size="10px" fill="#000" opacity="1">alpine:3.12</text><text text-anchor="end" transform="translate(-9,560.9630738522955)" font-family="sans-serif" font-size="10px" fill="#000" opacity="1">nginx:latest</text><text text-anchor="end" transform="translate(-9,580.5239520958083)" font-family="sans-serif" font-size="10px" fill="#000" opacity="1">openjdk:8</text><text text-anchor="end" transform="translate(-9,600.0848303393212)" font-family="sans-serif" font-size="10px" fill="#000" opacity="1">ubuntu:focal</text><text text-anchor="end" transform="translate(-9,619.6457085828343)" font-family="sans-serif" font-size="10px" fill="#000" opacity="1">ubuntu:14.04</text><text text-anchor="end" transform="translate(-9,639.2065868263472)" font-family="sans-serif" font-size="10px" fill="#000" opacity="1">node:latest</text><text text-anchor="end" transform="translate(-9,658.7674650698604)" font-family="sans-serif" font-size="10px" fill="#000" opacity="1">debian:latest</text><text text-anchor="end" transform="translate(-9,678.3283433133732)" font-family="sans-serif" font-size="10px" fill="#000" opacity="1">php:7.4-fpm</text><text text-anchor="end" transform="translate(-9,697.8892215568861)" font-family="sans-serif" font-size="10px" fill="#000" opacity="1">debian</text><text text-anchor="end" transform="translate(-9,717.4500998003992)" font-family="sans-serif" font-size="10px" fill="#000" opacity="1">alpine:edge</text><text text-anchor="end" transform="translate(-9,737.0109780439121)" font-family="sans-serif" font-size="10px" fill="#000" opacity="1">python:3.7</text><text text-anchor="end" transform="translate(-9,756.571856287425)" font-family="sans-serif" font-size="10px" fill="#000" opacity="1">debian:stable-slim</text><text text-anchor="end" transform="translate(-9,776.1327345309381)" font-family="sans-serif" font-size="10px" fill="#000" opacity="1">centos:8</text><text text-anchor="end" transform="translate(-9,795.693612774451)" font-family="sans-serif" font-size="10px" fill="#000" opacity="1">python:3.7-alpine</text><text text-anchor="end" transform="translate(-9,815.2544910179641)" font-family="sans-serif" font-size="10px" fill="#000" opacity="1">debian:stretch</text><text text-anchor="end" transform="translate(-9,834.815369261477)" font-family="sans-serif" font-size="10px" fill="#000" opacity="1">openjdk:8-jdk-alpine</text><text text-anchor="end" transform="translate(-9,854.3762475049899)" font-family="sans-serif" font-size="10px" fill="#000" opacity="1">php:7.4-apache</text><text text-anchor="end" transform="translate(-9,873.937125748503)" font-family="sans-serif" font-size="10px" fill="#000" opacity="1">node:12-alpine</text><text text-anchor="end" transform="translate(-9,893.4980039920159)" font-family="sans-serif" font-size="10px" fill="#000" opacity="1">alpine:3</text><text text-anchor="end" transform="translate(-9,913.0588822355288)" font-family="sans-serif" font-size="10px" fill="#000" opacity="1">debian:stretch-slim</text><text text-anchor="end" transform="translate(-9,932.6197604790419)" font-family="sans-serif" font-size="10px" fill="#000" opacity="1">centos:centos7</text><text text-anchor="end" transform="translate(-9,952.1806387225548)" font-family="sans-serif" font-size="10px" fill="#000" opacity="1">python</text><text text-anchor="end" transform="translate(-9,971.7415169660679)" font-family="sans-serif" font-size="10px" fill="#000" opacity="1">ubuntu:22.04</text></g><g class="mark-rule role-axis-domain" pointer-events="none"><line transform="translate(0,0)" x2="0" y2="980" stroke="#888" stroke-width="1" opacity="1"/></g><g class="mark-text role-axis-title" pointer-events="none"><text text-anchor="middle" transform="translate(-189,490) rotate(-90) translate(0,-2)" font-family="sans-serif" font-size="11px" font-weight="bold" fill="#000" opacity="1">Image Reference</text></g></g><path class="foreground" aria-hidden="true" d="" pointer-events="none" display="none"/></g></g><g class="mark-group role-axis" role="graphics-symbol" aria-roledescription="axis" aria-label="X-axis titled 'Total Count' for a linear scale with values from 0 to 2,000"><g transform="translate(0.5,980.5)"><path class="background" aria-hidden="true" d="M0,0h0v0h0Z" pointer-events="none"/><g><g class="mark-rule role-axis-tick" pointer-events="none"><line transform="translate(0,0)" x2="0" y2="5" stroke="#888" stroke-width="1" opacity="1"/><line transform="translate(108,0)" x2="0" y2="5" stroke="#888" stroke-width="1" opacity="1"/><line transform="translate(216,0)" x2="0" y2="5" stroke="#888" stroke-width="1" opacity="1"/><line transform="translate(324,0)" x2="0" y2="5" stroke="#888" stroke-width="1" opacity="1"/><line transform="translate(432,0)" x2="0" y2="5" stroke="#888" stroke-width="1" opacity="1"/><line transform="translate(540,0)" x2="0" y2="5" stroke="#888" stroke-width="1" opacity="1"/><line transform="translate(648,0)" x2="0" y2="5" stroke="#888" stroke-width="1" opacity="1"/><line transform="translate(756,0)" x2="0" y2="5" stroke="#888" stroke-width="1" opacity="1"/><line transform="translate(864,0)" x2="0" y2="5" stroke="#888" stroke-width="1" opacity="1"/><line transform="translate(972,0)" x2="0" y2="5" stroke="#888" stroke-width="1" opacity="1"/><line transform="translate(1080,0)" x2="0" y2="5" stroke="#888" stroke-width="1" opacity="1"/></g><g class="mark-text role-axis-label" pointer-events="none"><text text-anchor="middle" transform="translate(0,15)" font-family="sans-serif" font-size="10px" fill="#000" opacity="1">0</text><text text-anchor="middle" transform="translate(108,15)" font-family="sans-serif" font-size="10px" fill="#000" opacity="1">200</text><text text-anchor="middle" transform="translate(216,15)" font-family="sans-serif" font-size="10px" fill="#000" opacity="1">400</text><text text-anchor="middle" transform="translate(324,15)" font-family="sans-serif" font-size="10px" fill="#000" opacity="1">600</text><text text-anchor="middle" transform="translate(432,15)" font-family="sans-serif" font-size="10px" fill="#000" opacity="1">800</text><text text-anchor="middle" transform="translate(540,15)" font-family="sans-serif" font-size="10px" fill="#000" opacity="1">1,000</text><text text-anchor="middle" transform="translate(648,15)" font-family="sans-serif" font-size="10px" fill="#000" opacity="1">1,200</text><text text-anchor="middle" transform="translate(756,15)" font-family="sans-serif" font-size="10px" fill="#000" opacity="1">1,400</text><text text-anchor="middle" transform="translate(864,15)" font-family="sans-serif" font-size="10px" fill="#000" opacity="1">1,600</text><text text-anchor="middle" transform="translate(972,15)" font-family="sans-serif" font-size="10px" fill="#000" opacity="1">1,800</text><text text-anchor="middle" transform="translate(1080,15)" font-family="sans-serif" font-size="10px" fill="#000" opacity="1">2,000</text></g><g class="mark-rule role-axis-domain" pointer-events="none"><line transform="translate(0,0)" x2="1080" y2="0" stroke="#888" stroke-width="1" opacity="1"/></g><g class="mark-text role-axis-title" pointer-events="none"><text text-anchor="middle" transform="translate(540,30)" font-family="sans-serif" font-size="11px" font-weight="bold" fill="#000" opacity="1">Total Count</text></g></g><path class="foreground" aria-hidden="true" d="" pointer-events="none" display="none"/></g></g><g class="mark-rect role-mark" role="graphics-symbol" aria-roledescription="rect mark container"><path d="M0,1.9560878243513002h1056.78v17.604790419161677h-1056.78Z" fill="steelblue"/><path d="M0,21.516966067864274h584.8199999999999v17.604790419161677h-584.8199999999999Z" fill="steelblue"/><path d="M0,41.07784431137725h486v17.604790419161677h-486Z" fill="steelblue"/><path d="M0,60.63872255489022h462.78v17.604790419161677h-462.78Z" fill="steelblue"/><path d="M0,80.1996007984032h443.88v17.604790419161677h-443.88Z" fill="steelblue"/><path d="M0,99.76047904191617h359.1v17.604790419161677h-359.1Z" fill="steelblue"/><path d="M0,119.32135728542914h351v17.604790419161677h-351Z" fill="steelblue"/><path d="M0,138.88223552894212h313.73999999999995v17.604790419161677h-313.73999999999995Z" fill="steelblue"/><path d="M0,158.4431137724551h262.98v17.604790419161677h-262.98Z" fill="steelblue"/><path d="M0,178.00399201596807h255.95999999999998v17.604790419161677h-255.95999999999998Z" fill="steelblue"/><path d="M0,197.56487025948104h253.26v17.604790419161677h-253.26Z" fill="steelblue"/><path d="M0,217.125748502994h227.88v17.604790419161677h-227.88Z" fill="steelblue"/><path d="M0,236.686626746507h224.1v17.604790419161677h-224.1Z" fill="steelblue"/><path d="M0,256.24750499001993h222.48v17.604790419161677h-222.48Z" fill="steelblue"/><path d="M0,275.80838323353294h186.29999999999998v17.604790419161677h-186.29999999999998Z" fill="steelblue"/><path d="M0,295.3692614770459h177.66v17.604790419161677h-177.66Z" fill="steelblue"/><path d="M0,314.9301397205589h167.94v17.604790419161677h-167.94Z" fill="steelblue"/><path d="M0,334.4910179640719h167.4v17.604790419161677h-167.4Z" fill="steelblue"/><path d="M0,354.05189620758483h167.4v17.604790419161677h-167.4Z" fill="steelblue"/><path d="M0,373.6127744510978h153.35999999999999v17.604790419161677h-153.35999999999999Z" fill="steelblue"/><path d="M0,393.1736526946108h151.20000000000002v17.604790419161677h-151.20000000000002Z" fill="steelblue"/><path d="M0,412.7345309381238h138.24v17.604790419161677h-138.24Z" fill="steelblue"/><path d="M0,432.2954091816367h125.28v17.604790419161677h-125.28Z" fill="steelblue"/><path d="M0,451.8562874251497h120.96000000000001v17.604790419161677h-120.96000000000001Z" fill="steelblue"/><path d="M0,471.4171656686627h116.64v17.604790419161677h-116.64Z" fill="steelblue"/><path d="M0,490.9780439121757h116.64v17.604790419161677h-116.64Z" fill="steelblue"/><path d="M0,510.5389221556886h112.32v17.604790419161677h-112.32Z" fill="steelblue"/><path d="M0,530.0998003992015h109.08000000000001v17.604790419161677h-109.08000000000001Z" fill="steelblue"/><path d="M0,549.6606786427146h109.08000000000001v17.604790419161677h-109.08000000000001Z" fill="steelblue"/><path d="M0,569.2215568862275h94.5v17.604790419161677h-94.5Z" fill="steelblue"/><path d="M0,588.7824351297404h91.26v17.604790419161677h-91.26Z" fill="steelblue"/><path d="M0,608.3433133732535h86.94v17.604790419161677h-86.94Z" fill="steelblue"/><path d="M0,627.9041916167664h86.4v17.604790419161677h-86.4Z" fill="steelblue"/><path d="M0,647.4650698602795h84.78v17.604790419161677h-84.78Z" fill="steelblue"/><path d="M0,667.0259481037924h81v17.604790419161677h-81Z" fill="steelblue"/><path d="M0,686.5868263473053h79.92v17.604790419161677h-79.92Z" fill="steelblue"/><path d="M0,706.1477045908184h78.3v17.604790419161677h-78.3Z" fill="steelblue"/><path d="M0,725.7085828343313h77.75999999999999v17.604790419161677h-77.75999999999999Z" fill="steelblue"/><path d="M0,745.2694610778442h77.22v17.604790419161677h-77.22Z" fill="steelblue"/><path d="M0,764.8303393213573h73.98v17.604790419161677h-73.98Z" fill="steelblue"/><path d="M0,784.3912175648702h71.82000000000001v17.604790419161677h-71.82000000000001Z" fill="steelblue"/><path d="M0,803.9520958083833h70.2v17.604790419161677h-70.2Z" fill="steelblue"/><path d="M0,823.5129740518962h66.42v17.604790419161677h-66.42Z" fill="steelblue"/><path d="M0,843.0738522954091h65.88v17.604790419161677h-65.88Z" fill="steelblue"/><path d="M0,862.6347305389222h65.34v17.604790419161677h-65.34Z" fill="steelblue"/><path d="M0,882.1956087824351h64.25999999999999v17.604790419161677h-64.25999999999999Z" fill="steelblue"/><path d="M0,901.756487025948h62.1v17.604790419161677h-62.1Z" fill="steelblue"/><path d="M0,921.3173652694611h61.02v17.604790419161677h-61.02Z" fill="steelblue"/><path d="M0,940.878243512974h60.480000000000004v17.604790419161677h-60.480000000000004Z" fill="steelblue"/><path d="M0,960.4391217564871h59.94v17.604790419161677h-59.94Z" fill="steelblue"/></g><g class="mark-text role-mark" role="graphics-object" aria-roledescription="text mark container"><text text-anchor="end" transform="translate(1052.78,13.758483033932139)" font-family="sans-serif" font-size="11px" fill="white">1957</text><text text-anchor="end" transform="translate(580.8199999999999,33.31936127744511)" font-family="sans-serif" font-size="11px" fill="white">1083</text><text text-anchor="end" transform="translate(482,52.880239520958085)" font-family="sans-serif" font-size="11px" fill="white">900</text><text text-anchor="end" transform="translate(458.78,72.44111776447106)" font-family="sans-serif" font-size="11px" fill="white">857</text><text text-anchor="end" transform="translate(439.88,92.00199600798403)" font-family="sans-serif" font-size="11px" fill="white">822</text><text text-anchor="end" transform="translate(355.1,111.562874251497)" font-family="sans-serif" font-size="11px" fill="white">665</text><text text-anchor="end" transform="translate(347,131.12375249501)" font-family="sans-serif" font-size="11px" fill="white">650</text><text text-anchor="end" transform="translate(309.73999999999995,150.68463073852297)" font-family="sans-serif" font-size="11px" fill="white">581</text><text text-anchor="end" transform="translate(258.98,170.24550898203594)" font-family="sans-serif" font-size="11px" fill="white">487</text><text text-anchor="end" transform="translate(251.95999999999998,189.80638722554892)" font-family="sans-serif" font-size="11px" fill="white">474</text><text text-anchor="end" transform="translate(249.26,209.3672654690619)" font-family="sans-serif" font-size="11px" fill="white">469</text><text text-anchor="end" transform="translate(223.88,228.92814371257487)" font-family="sans-serif" font-size="11px" fill="white">422</text><text text-anchor="end" transform="translate(220.1,248.48902195608784)" font-family="sans-serif" font-size="11px" fill="white">415</text><text text-anchor="end" transform="translate(218.48,268.04990019960076)" font-family="sans-serif" font-size="11px" fill="white">412</text><text text-anchor="end" transform="translate(182.29999999999998,287.61077844311376)" font-family="sans-serif" font-size="11px" fill="white">345</text><text text-anchor="end" transform="translate(173.66,307.1716566866267)" font-family="sans-serif" font-size="11px" fill="white">329</text><text text-anchor="end" transform="translate(163.94,326.7325349301397)" font-family="sans-serif" font-size="11px" fill="white">311</text><text text-anchor="end" transform="translate(163.4,346.2934131736527)" font-family="sans-serif" font-size="11px" fill="white">310</text><text text-anchor="end" transform="translate(163.4,365.85429141716565)" font-family="sans-serif" font-size="11px" fill="white">310</text><text text-anchor="end" transform="translate(149.35999999999999,385.4151696606786)" font-family="sans-serif" font-size="11px" fill="white">284</text><text text-anchor="end" transform="translate(147.20000000000002,404.9760479041916)" font-family="sans-serif" font-size="11px" fill="white">280</text><text text-anchor="end" transform="translate(134.24,424.5369261477046)" font-family="sans-serif" font-size="11px" fill="white">256</text><text text-anchor="end" transform="translate(121.28,444.09780439121755)" font-family="sans-serif" font-size="11px" fill="white">232</text><text text-anchor="end" transform="translate(116.96000000000001,463.6586826347305)" font-family="sans-serif" font-size="11px" fill="white">224</text><text text-anchor="end" transform="translate(112.64,483.2195608782435)" font-family="sans-serif" font-size="11px" fill="white">216</text><text text-anchor="end" transform="translate(112.64,502.7804391217565)" font-family="sans-serif" font-size="11px" fill="white">216</text><text text-anchor="end" transform="translate(108.32,522.3413173652694)" font-family="sans-serif" font-size="11px" fill="white">208</text><text text-anchor="end" transform="translate(105.08000000000001,541.9021956087823)" font-family="sans-serif" font-size="11px" fill="white">202</text><text text-anchor="end" transform="translate(105.08000000000001,561.4630738522955)" font-family="sans-serif" font-size="11px" fill="white">202</text><text text-anchor="end" transform="translate(90.5,581.0239520958083)" font-family="sans-serif" font-size="11px" fill="white">175</text><text text-anchor="end" transform="translate(87.26,600.5848303393212)" font-family="sans-serif" font-size="11px" fill="white">169</text><text text-anchor="end" transform="translate(82.94,620.1457085828343)" font-family="sans-serif" font-size="11px" fill="white">161</text><text text-anchor="end" transform="translate(82.4,639.7065868263472)" font-family="sans-serif" font-size="11px" fill="white">160</text><text text-anchor="end" transform="translate(80.78,659.2674650698604)" font-family="sans-serif" font-size="11px" fill="white">157</text><text text-anchor="end" transform="translate(77,678.8283433133732)" font-family="sans-serif" font-size="11px" fill="white">150</text><text text-anchor="end" transform="translate(75.92,698.3892215568861)" font-family="sans-serif" font-size="11px" fill="white">148</text><text text-anchor="end" transform="translate(74.3,717.9500998003992)" font-family="sans-serif" font-size="11px" fill="white">145</text><text text-anchor="end" transform="translate(73.75999999999999,737.5109780439121)" font-family="sans-serif" font-size="11px" fill="white">144</text><text text-anchor="end" transform="translate(73.22,757.071856287425)" font-family="sans-serif" font-size="11px" fill="white">143</text><text text-anchor="end" transform="translate(69.98,776.6327345309381)" font-family="sans-serif" font-size="11px" fill="white">137</text><text text-anchor="end" transform="translate(67.82000000000001,796.193612774451)" font-family="sans-serif" font-size="11px" fill="white">133</text><text text-anchor="end" transform="translate(66.2,815.7544910179641)" font-family="sans-serif" font-size="11px" fill="white">130</text><text text-anchor="end" transform="translate(62.42,835.315369261477)" font-family="sans-serif" font-size="11px" fill="white">123</text><text text-anchor="end" transform="translate(61.879999999999995,854.8762475049899)" font-family="sans-serif" font-size="11px" fill="white">122</text><text text-anchor="end" transform="translate(61.34,874.437125748503)" font-family="sans-serif" font-size="11px" fill="white">121</text><text text-anchor="end" transform="translate(60.25999999999999,893.9980039920159)" font-family="sans-serif" font-size="11px" fill="white">119</text><text text-anchor="end" transform="translate(58.1,913.5588822355288)" font-family="sans-serif" font-size="11px" fill="white">115</text><text text-anchor="end" transform="translate(57.02,933.1197604790419)" font-family="sans-serif" font-size="11px" fill="white">113</text><text text-anchor="end" transform="translate(56.480000000000004,952.6806387225548)" font-family="sans-serif" font-size="11px" fill="white">112</text><text text-anchor="end" transform="translate(55.94,972.2415169660679)" font-family="sans-serif" font-size="11px" fill="white">111</text></g><g class="mark-group role-title"><g transform="translate(450,-17)"><path class="background" aria-hidden="true" d="M0,0h0v0h0Z" pointer-events="none"/><g><g class="mark-text role-title-text" role="graphics-symbol" aria-roledescription="title" aria-label="Title text 'Top 50 Images Used By GitHub Dockerfiles At 2023-08-02 11:58:01'" pointer-events="none"><text text-anchor="middle" transform="translate(0,10)" font-family="sans-serif" font-size="13px" font-weight="bold" fill="#000" opacity="1">Top 50 Images Used By GitHub Dockerfiles At 2023-08-02 11:58:01</text></g></g><path class="foreground" aria-hidden="true" d="" pointer-events="none" display="none"/></g></g></g><path class="foreground" aria-hidden="true" d="" display="none"/></g></g></g></svg>